<svg xmlns="http://www.w3.org/2000/svg" width="24" height="24" viewBox="0 0 24 24" fill="none">
<path d="M22.08 12.2569C21.9417 17.6922 17.4353 22.0799 12 22.0799C6.46593 22.0799 1.92004 17.534 1.92004 11.9999C1.92004 6.4658 6.46593 1.91992 12 1.91992C15.36 1.91992 18.4829 3.59992 20.3605 6.36698C20.4 6.42627 21.0523 7.39475 21.0918 7.45404" stroke="#90A4AE" stroke-width="1.5" stroke-miterlimit="10" stroke-linecap="round" stroke-linejoin="round"/>
<path d="M22.5 5.50008L21.4124 8.22943L18.5 7.49985" stroke="#90A4AE" stroke-width="1.5" stroke-miterlimit="10" stroke-linecap="round" stroke-linejoin="round"/>
<path d="M17 14.7766V10.3322C16.9998 10.1373 16.9484 9.94598 16.8509 9.77728C16.7533 9.60859 16.6132 9.46851 16.4444 9.37108L12.5556 7.14886C12.3866 7.05134 12.195 7 12 7C11.805 7 11.6134 7.05134 11.4444 7.14886L7.55556 9.37108C7.38681 9.46851 7.24666 9.60859 7.14915 9.77728C7.05163 9.94598 7.0002 10.1373 7 10.3322V14.7766C7.0002 14.9715 7.05163 15.1629 7.14915 15.3315C7.24666 15.5002 7.38681 15.6403 7.55556 15.7377L11.4444 17.96C11.6134 18.0575 11.805 18.1088 12 18.1088C12.195 18.1088 12.3866 18.0575 12.5556 17.96L16.4444 15.7377C16.6132 15.6403 16.7533 15.5002 16.8509 15.3315C16.9484 15.1629 16.9998 14.9715 17 14.7766Z" stroke="#90A4AE" stroke-width="1.5" stroke-linecap="round" stroke-linejoin="round"/>
<path d="M7.15002 9.75537L12 12.5609L16.85 9.75537" stroke="#90A4AE" stroke-width="1.5" stroke-linecap="round" stroke-linejoin="round"/>
<path d="M12 18.1542V12.5542" stroke="#90A4AE" stroke-width="1.5" stroke-linecap="round" stroke-linejoin="round"/>
<script xmlns=""/>
</svg>