<svg xmlns="http://www.w3.org/2000/svg" width="22" height="22" viewBox="0 0 22 22" fill="none">
<path d="M3.66602 19.25V8.25M19.2493 8.25V19.25" stroke="#90A4AE" stroke-width="1.375" stroke-linecap="round" stroke-linejoin="round"/>
<path d="M12.3285 12.2856H15.8118V19.2523H7.10352V14.0273H12.3285" stroke="#90A4AE" stroke-width="1.375" stroke-linecap="round" stroke-linejoin="round"/>
<path d="M12.329 19.2537V11.4162C12.329 11.1853 12.2373 10.9638 12.074 10.8005C11.9107 10.6372 11.6892 10.5454 11.4582 10.5454H9.71654C9.48558 10.5454 9.26408 10.6372 9.10076 10.8005C8.93745 10.9638 8.8457 11.1853 8.8457 11.4162V14.0287" stroke="#90A4AE" stroke-width="1.375" stroke-linecap="round" stroke-linejoin="round"/>
<path d="M5.44951 2.75C4.81725 2.75 4.23362 3.07117 4.03908 3.55292L2.87183 6.32299C2.43411 7.32664 3.21228 8.25 4.62271 8.25C5.64405 8.25 6.6654 7.76825 7.15175 7.08577C7.39493 7.76825 8.1731 8.25 9.19444 8.25C10.2158 8.25 11.0912 7.76825 11.4803 7.08577C11.8694 7.76825 12.7448 8.25 13.7662 8.25C14.7875 8.25 15.5657 7.76825 15.8089 7.08577C16.3439 7.76825 17.3166 8.25 18.3379 8.25C19.7483 8.25 20.4779 7.36679 20.0401 6.32299L19.0188 3.55292C18.8243 3.07117 18.2406 2.75 17.657 2.75H5.44951Z" stroke="#90A4AE" stroke-width="1.375" stroke-miterlimit="10" stroke-linecap="round" stroke-linejoin="round"/>
<script xmlns=""/></svg>