<svg width="42" height="42" viewBox="0 0 42 42" fill="none" xmlns="http://www.w3.org/2000/svg">
<rect width="42" height="41.932" rx="10" fill="url(#paint0_linear_6679_37170)"/>
<path d="M17.4673 29.9115C17.0343 29.1664 16.3094 28.6629 15.4334 28.5018C15.232 28.4615 15.0306 28.4414 14.8292 28.4414C13.2988 28.4414 11.8086 29.4886 11.285 31.009C10.9729 31.9252 11.0534 32.8918 11.5065 33.6671C11.9395 34.4223 12.6644 34.9156 13.5404 35.0768C13.6814 35.107 13.8224 35.117 13.9533 35.1271C15.5441 35.2177 17.135 34.1504 17.6787 32.5595C18.0009 31.6534 17.9204 30.6867 17.4673 29.9115ZM15.4434 31.7943C15.232 32.4186 14.5372 32.8616 13.9633 32.7609C13.772 32.7206 13.6311 32.6401 13.5505 32.4891C13.4498 32.3078 13.4397 32.0561 13.5304 31.7943C13.7418 31.1801 14.4265 30.727 15.0004 30.8378C15.1917 30.868 15.3327 30.9586 15.4132 31.1096C15.524 31.2909 15.5341 31.5426 15.4434 31.7943Z" fill="white"/>
<path d="M31.7952 26.3164C31.3824 25.6821 30.7279 25.2793 29.9526 25.1786C29.8318 25.1686 29.7009 25.1484 29.5801 25.1484C28.1805 25.1484 26.8514 26.1553 26.4386 27.575C26.207 28.3906 26.3178 29.2263 26.7507 29.8908C27.1636 30.5252 27.818 30.9279 28.5933 31.0286C28.7141 31.0387 28.845 31.0488 28.9659 31.0588C30.3654 31.0588 31.7046 30.062 32.1073 28.6322C32.349 27.8267 32.2282 26.981 31.7952 26.3164ZM30.1137 28.0583C29.9627 28.6121 29.3787 29.035 28.8652 28.9746C28.694 28.9544 28.5732 28.8739 28.4926 28.7531C28.3919 28.602 28.3718 28.3805 28.4322 28.1489C28.5933 27.5952 29.1672 27.1723 29.6808 27.2327C29.8519 27.2528 29.9727 27.3334 30.0533 27.4542C30.1641 27.6153 30.1842 27.8267 30.1137 28.0583Z" fill="white"/>
<path d="M33.7182 22.1459C27.0224 21.1793 19.1587 21.7331 13.5201 23.042C13.208 23.1125 12.9664 22.7702 13.1476 22.4983L21.6457 9.49946C22.6626 8.04955 21.837 6.78088 20.5381 6.80102H10.1169V7.28432C10.1269 8.28113 10.9425 9.08664 11.9494 9.07657L17.7692 9.0665C18.0209 9.0665 18.1014 9.29809 17.9705 9.49946L7.08616 26.1533C6.85458 26.697 6.95527 27.3112 7.33789 27.7542C7.60974 28.0664 8.00243 28.2577 8.40518 28.2778C8.56628 28.2879 8.72738 28.2677 8.88848 28.2274C9.03951 28.1872 20.377 22.6393 33.4564 24.3006C34.3022 24.4013 35.007 24.5725 35.007 24.5725C35.1278 23.7368 34.9365 22.3271 33.7182 22.1459Z" fill="white"/>
<defs>
<linearGradient id="paint0_linear_6679_37170" x1="5" y1="7" x2="38" y2="40.5" gradientUnits="userSpaceOnUse">
<stop stop-color="#60A744"/>
<stop offset="1" stop-color="#76CC33"/>
</linearGradient>
</defs>
</svg>