<svg xmlns="http://www.w3.org/2000/svg" width="43" height="43" viewBox="0 0 43 43" fill="none">
    <path d="M26.852 20.3543C30.4134 20.3543 33.3006 17.4671 33.3006 13.9057C33.3006 10.3442 30.4134 7.45703 26.852 7.45703C23.2905 7.45703 20.4033 10.3442 20.4033 13.9057C20.4033 17.4671 23.2905 20.3543 26.852 20.3543Z" fill="#FAA51A"/>
    <path d="M16.1478 35.4888H18.5167V23.6882C18.5167 20.2665 15.753 17.5028 12.3313 17.5028H9.9624V29.2595C9.9624 32.7251 12.7261 35.4888 16.1478 35.4888Z" fill="#2AB674"/>
    <path d="M14.2176 16.0113H18.5167V11.7123C18.5167 9.34337 16.6304 7.45703 14.2615 7.45703H9.9624V11.7561C9.9624 14.0811 11.8487 16.0113 14.2176 16.0113Z" fill="#D6DF2A"/>
    <path d="M20.6661 22.2842H27.2464C30.8874 22.2842 33.8266 25.2234 33.8266 28.8645C33.8266 32.5055 30.8874 35.4447 27.2464 35.4447C23.6053 35.4447 20.6661 32.5055 20.6661 28.8645V22.2842Z" fill="#8DC543"/>
    <script xmlns=""/>
</svg>